# xmcd
#
# Track frame offsets:
#	150
#	20364
#	33817
#	49566
#	62454
#	84000
#	95602
#	107386
#	120807
#	139727
#	153299
#	161044
#
# Disc length: 2442 seconds
#
# Revision: 1
# Processed by: cddbd v1.5.2PL0 Copyright (c) Steve Scherf et al.
# Submitted via: audiograbber 1.83.01
#
DISCID=7a09880c
DTITLE=Bogdan Szweda and EASY RIDER - Midnight Walk
DYEAR=2008
DGENRE=Blues
TTITLE0=La Femme Defendue
TTITLE1=Crazy About You Baby Blues
TTITLE2=Midnight Walk
TTITLE3=Blues In The Bottle
TTITLE4=Brave New World
TTITLE5=Cross Road Blues
TTITLE6=I Can't Be Satisfied
TTITLE7=When You Love Me
TTITLE8=On The Border
TTITLE9=Voodoo Blues
TTITLE10=Mr Stevie
TTITLE11=Stormy Monday
EXTD=
EXTT0=
EXTT1=
EXTT2=
EXTT3=
EXTT4=
EXTT5=
EXTT6=
EXTT7=
EXTT8=
EXTT9=
EXTT10=
EXTT11=
PLAYORDER=
